CalSansText-Light.ufo
<glyph name="dollar" format="2">
  <advance width="584.0"/>
  <unicode hex="0024"/>
  <anchor x="309.0" y="653.0" name="_TopCurrency"/>
  <outline>
    <contour>
      <point x="300.0" y="27.0" type="curve" smooth="yes"/>
      <point x="431.0" y="27.0"/>
      <point x="531.0" y="93.0"/>
      <point x="531.0" y="219.0" type="curve" smooth="yes"/>
      <point x="531.0" y="452.0"/>
      <point x="176.0" y="355.0"/>
      <point x="176.0" y="500.0" type="curve" smooth="yes"/>
      <point x="176.0" y="562.0"/>
      <point x="224.0" y="598.0"/>
      <point x="311.0" y="598.0" type="curve" smooth="yes"/>
      <point x="371.0" y="598.0"/>
      <point x="422.0" y="568.0"/>
      <point x="458.0" y="510.0" type="curve"/>
      <point x="526.0" y="554.0" type="line"/>
      <point x="481.0" y="624.0"/>
      <point x="413.0" y="673.0"/>
      <point x="312.0" y="673.0" type="curve" smooth="yes"/>
      <point x="173.0" y="673.0"/>
      <point x="92.0" y="589.0"/>
      <point x="92.0" y="495.0" type="curve" smooth="yes"/>
      <point x="92.0" y="265.0"/>
      <point x="446.0" y="366.0"/>
      <point x="446.0" y="214.0" type="curve" smooth="yes"/>
      <point x="446.0" y="132.0"/>
      <point x="379.0" y="103.0"/>
      <point x="306.0" y="103.0" type="curve" smooth="yes"/>
      <point x="227.0" y="103.0"/>
      <point x="167.0" y="136.0"/>
      <point x="122.0" y="208.0" type="curve"/>
      <point x="54.0" y="162.0" type="line"/>
      <point x="108.0" y="77.0"/>
      <point x="195.0" y="27.0"/>
    </contour>
    <component base="verticalTopCurrencycomb" xOffset="309.0"/>
    <component base="verticalBottomCurrencycomb" xOffset="309.0"/>
  </outline>
</glyph>
<glyph name="ampersand" format="2">
  <advance width="662.0"/>
  <unicode hex="0026"/>
  <outline>
    <contour>
      <point x="270.0" y="-13.0" type="curve" smooth="yes"/>
      <point x="340.0" y="-13.0"/>
      <point x="408.0" y="16.0"/>
      <point x="453.0" y="65.0" type="curve" smooth="yes"/>
      <point x="494.0" y="109.0" type="line"/>
      <point x="616.0" y="247.0" type="line"/>
      <point x="559.0" y="293.0" type="line"/>
      <point x="459.0" y="175.0" type="line"/>
      <point x="403.0" y="120.0" type="line" smooth="yes"/>
      <point x="365.0" y="82.0"/>
      <point x="317.0" y="62.0"/>
      <point x="271.0" y="62.0" type="curve" smooth="yes"/>
      <point x="192.0" y="62.0"/>
      <point x="145.0" y="114.0"/>
      <point x="145.0" y="179.0" type="curve" smooth="yes"/>
      <point x="145.0" y="229.0"/>
      <point x="165.0" y="264.0"/>
      <point x="216.0" y="297.0" type="curve" smooth="yes"/>
      <point x="349.0" y="383.0" type="line" smooth="yes"/>
      <point x="430.0" y="435.0"/>
      <point x="470.0" y="508.0"/>
      <point x="469.0" y="563.0" type="curve" smooth="yes"/>
      <point x="468.0" y="653.0"/>
      <point x="403.0" y="713.0"/>
      <point x="300.0" y="713.0" type="curve" smooth="yes"/>
      <point x="195.0" y="713.0"/>
      <point x="126.0" y="650.0"/>
      <point x="126.0" y="549.0" type="curve" smooth="yes"/>
      <point x="126.0" y="512.0"/>
      <point x="146.0" y="460.0"/>
      <point x="191.0" y="406.0" type="curve" smooth="yes"/>
      <point x="431.0" y="120.0" type="line"/>
      <point x="456.0" y="101.0" type="line"/>
      <point x="527.0" y="0.0" type="line"/>
      <point x="637.0" y="0.0" type="line"/>
      <point x="260.0" y="455.0" type="line" smooth="yes"/>
      <point x="231.0" y="490.0"/>
      <point x="210.0" y="519.0"/>
      <point x="210.0" y="557.0" type="curve" smooth="yes"/>
      <point x="210.0" y="607.0"/>
      <point x="246.0" y="638.0"/>
      <point x="300.0" y="638.0" type="curve" smooth="yes"/>
      <point x="352.0" y="638.0"/>
      <point x="385.0" y="604.0"/>
      <point x="386.0" y="557.0" type="curve" smooth="yes"/>
      <point x="387.0" y="514.0"/>
      <point x="353.0" y="471.0"/>
      <point x="285.0" y="431.0" type="curve" smooth="yes"/>
      <point x="179.0" y="369.0" type="line" smooth="yes"/>
      <point x="104.0" y="325.0"/>
      <point x="60.0" y="254.0"/>
      <point x="60.0" y="183.0" type="curve" smooth="yes"/>
      <point x="60.0" y="70.0"/>
      <point x="135.0" y="-13.0"/>
    </contour>
  </outline>
</glyph>
<glyph name="parenright" format="2">
  <advance width="324.0"/>
  <unicode hex="0029"/>
  <outline>
    <contour>
      <point x="107.0" y="-214.0" type="line"/>
      <point x="294.0" y="65.0"/>
      <point x="293.0" y="545.0"/>
      <point x="107.0" y="803.0" type="curve"/>
      <point x="47.0" y="770.0" type="line"/>
      <point x="223.0" y="562.0"/>
      <point x="217.0" y="71.0"/>
      <point x="47.0" y="-180.0" type="curve"/>
    </contour>
  </outline>
</glyph>
<glyph name="one" format="2">
  <advance width="278.0"/>
  <unicode hex="0031"/>
  <outline>
    <contour>
      <point x="109.0" y="0.0" type="line"/>
      <point x="194.0" y="0.0" type="line"/>
      <point x="194.0" y="713.0" type="line"/>
      <point x="-7.0" y="633.0" type="line"/>
      <point x="21.0" y="561.0" type="line"/>
      <point x="107.0" y="597.0" type="line"/>
      <point x="109.0" y="594.0" type="line"/>
    </contour>
  </outline>
</glyph>
<glyph name="two" format="2">
  <advance width="575.0"/>
  <unicode hex="0032"/>
  <outline>
    <contour>
      <point x="49.0" y="0.0" type="line"/>
      <point x="508.0" y="0.0" type="line"/>
      <point x="508.0" y="74.0" type="line"/>
      <point x="204.0" y="72.0" type="line"/>
      <point x="204.0" y="75.0" type="line"/>
      <point x="224.0" y="86.0"/>
      <point x="261.0" y="124.0"/>
      <point x="292.0" y="161.0" type="curve" smooth="yes"/>
      <point x="410.0" y="302.0" type="line" smooth="yes"/>
      <point x="474.0" y="377.0"/>
      <point x="501.0" y="437.0"/>
      <point x="501.0" y="504.0" type="curve" smooth="yes"/>
      <point x="501.0" y="607.0"/>
      <point x="418.0" y="713.0"/>
      <point x="278.0" y="713.0" type="curve" smooth="yes"/>
      <point x="142.0" y="713.0"/>
      <point x="49.0" y="614.0"/>
      <point x="49.0" y="470.0" type="curve"/>
      <point x="135.0" y="470.0" type="line"/>
      <point x="135.0" y="580.0"/>
      <point x="199.0" y="636.0"/>
      <point x="276.0" y="636.0" type="curve" smooth="yes"/>
      <point x="354.0" y="636.0"/>
      <point x="412.0" y="580.0"/>
      <point x="412.0" y="497.0" type="curve" smooth="yes"/>
      <point x="412.0" y="444.0"/>
      <point x="382.0" y="386.0"/>
      <point x="328.0" y="327.0" type="curve" smooth="yes"/>
      <point x="49.0" y="16.0" type="line"/>
    </contour>
  </outline>
</glyph>
<glyph name="four" format="2">
  <advance width="550.0"/>
  <unicode hex="0034"/>
  <outline>
    <contour>
      <point x="339.0" y="0.0" type="line"/>
      <point x="424.0" y="0.0" type="line"/>
      <point x="424.0" y="713.0" type="line"/>
      <point x="374.0" y="713.0" type="line"/>
      <point x="30.0" y="237.0" type="line"/>
      <point x="30.0" y="210.0" type="line"/>
      <point x="507.0" y="210.0" type="line"/>
      <point x="507.0" y="286.0" type="line"/>
      <point x="146.0" y="286.0" type="line"/>
      <point x="146.0" y="287.0" type="line"/>
      <point x="158.0" y="296.0"/>
      <point x="169.0" y="305.0"/>
      <point x="176.0" y="316.0" type="curve" smooth="yes"/>
      <point x="299.0" y="491.0" type="line" smooth="yes"/>
      <point x="320.0" y="522.0"/>
      <point x="336.0" y="556.0"/>
      <point x="344.0" y="576.0" type="curve"/>
      <point x="346.0" y="576.0" type="line"/>
      <point x="344.0" y="564.0"/>
      <point x="341.0" y="528.0"/>
      <point x="340.0" y="495.0" type="curve"/>
    </contour>
  </outline>
</glyph>
<glyph name="five" format="2">
  <advance width="582.0"/>
  <unicode hex="0035"/>
  <outline>
    <contour>
      <point x="280.0" y="-13.0" type="curve" smooth="yes"/>
      <point x="418.0" y="-13.0"/>
      <point x="514.0" y="84.0"/>
      <point x="514.0" y="219.0" type="curve" smooth="yes"/>
      <point x="514.0" y="334.0"/>
      <point x="437.0" y="431.0"/>
      <point x="291.0" y="431.0" type="curve" smooth="yes"/>
      <point x="268.0" y="431.0"/>
      <point x="240.0" y="426.0"/>
      <point x="217.0" y="418.0" type="curve"/>
      <point x="215.0" y="420.0" type="line"/>
      <point x="264.0" y="663.0" type="line"/>
      <point x="199.0" y="626.0" type="line"/>
      <point x="478.0" y="626.0" type="line"/>
      <point x="478.0" y="700.0" type="line"/>
      <point x="190.0" y="700.0" type="line"/>
      <point x="108.0" y="297.0" type="line"/>
      <point x="171.0" y="336.0"/>
      <point x="226.0" y="356.0"/>
      <point x="275.0" y="356.0" type="curve" smooth="yes"/>
      <point x="376.0" y="356.0"/>
      <point x="430.0" y="295.0"/>
      <point x="430.0" y="215.0" type="curve" smooth="yes"/>
      <point x="430.0" y="125.0"/>
      <point x="368.0" y="64.0"/>
      <point x="281.0" y="63.0" type="curve" smooth="yes"/>
      <point x="216.0" y="62.0"/>
      <point x="160.0" y="89.0"/>
      <point x="115.0" y="138.0" type="curve"/>
      <point x="58.0" y="84.0" type="line"/>
      <point x="109.0" y="19.0"/>
      <point x="192.0" y="-13.0"/>
    </contour>
  </outline>
</glyph>
<glyph name="six" format="2">
  <advance width="564.0"/>
  <unicode hex="0036"/>
  <outline>
    <contour>
      <point x="287.0" y="-13.0" type="curve" smooth="yes"/>
      <point x="423.0" y="-13.0"/>
      <point x="518.0" y="81.0"/>
      <point x="518.0" y="214.0" type="curve" smooth="yes"/>
      <point x="518.0" y="380.0"/>
      <point x="364.0" y="470.0"/>
      <point x="226.0" y="404.0" type="curve"/>
      <point x="225.0" y="406.0" type="line"/>
      <point x="400.0" y="700.0" type="line"/>
      <point x="300.0" y="700.0" type="line"/>
      <point x="123.0" y="403.0" type="line" smooth="yes"/>
      <point x="90.0" y="348.0"/>
      <point x="53.0" y="276.0"/>
      <point x="53.0" y="211.0" type="curve" smooth="yes"/>
      <point x="53.0" y="81.0"/>
      <point x="148.0" y="-13.0"/>
    </contour>
    <contour>
      <point x="287.0" y="62.0" type="curve" smooth="yes"/>
      <point x="205.0" y="62.0"/>
      <point x="140.0" y="120.0"/>
      <point x="140.0" y="214.0" type="curve" smooth="yes"/>
      <point x="140.0" y="295.0"/>
      <point x="201.0" y="358.0"/>
      <point x="294.0" y="358.0" type="curve" smooth="yes"/>
      <point x="369.0" y="358.0"/>
      <point x="433.0" y="295.0"/>
      <point x="433.0" y="211.0" type="curve" smooth="yes"/>
      <point x="433.0" y="120.0"/>
      <point x="366.0" y="62.0"/>
    </contour>
  </outline>
</glyph>
<glyph name="seven" format="2">
  <advance width="519.0"/>
  <unicode hex="0037"/>
  <outline>
    <contour>
      <point x="147.0" y="0.0" type="line"/>
      <point x="236.0" y="0.0" type="line"/>
      <point x="509.0" y="685.0" type="line"/>
      <point x="509.0" y="700.0" type="line"/>
      <point x="40.0" y="700.0" type="line"/>
      <point x="40.0" y="628.0" type="line"/>
      <point x="396.0" y="628.0" type="line"/>
      <point x="396.0" y="625.0" type="line"/>
      <point x="387.0" y="616.0"/>
      <point x="381.0" y="606.0"/>
      <point x="377.0" y="595.0" type="curve" smooth="yes"/>
    </contour>
  </outline>
</glyph>
<glyph name="B" format="2">
  <advance width="618.0"/>
  <unicode hex="0042"/>
  <anchor x="316.0" y="0.0" name="bottom"/>
  <anchor x="312.0" y="700.0" name="top"/>
  <outline>
    <contour>
      <point x="82.0" y="0.0" type="line"/>
      <point x="336.0" y="0.0" type="line" smooth="yes"/>
      <point x="475.0" y="0.0"/>
      <point x="571.0" y="72.0"/>
      <point x="571.0" y="191.0" type="curve" smooth="yes"/>
      <point x="571.0" y="294.0"/>
      <point x="508.0" y="343.0"/>
      <point x="403.0" y="362.0" type="curve"/>
      <point x="403.0" y="367.0" type="line"/>
      <point x="500.0" y="390.0"/>
      <point x="532.0" y="448.0"/>
      <point x="532.0" y="516.0" type="curve" smooth="yes"/>
      <point x="532.0" y="632.0"/>
      <point x="450.0" y="700.0"/>
      <point x="311.0" y="700.0" type="curve" smooth="yes"/>
      <point x="82.0" y="700.0" type="line"/>
    </contour>
    <contour>
      <point x="166.0" y="76.0" type="line"/>
      <point x="166.0" y="318.0" type="line"/>
      <point x="327.0" y="318.0" type="line" smooth="yes"/>
      <point x="419.0" y="318.0"/>
      <point x="486.0" y="280.0"/>
      <point x="486.0" y="198.0" type="curve" smooth="yes"/>
      <point x="486.0" y="115.0"/>
      <point x="419.0" y="76.0"/>
      <point x="327.0" y="76.0" type="curve" smooth="yes"/>
    </contour>
    <contour>
      <point x="166.0" y="390.0" type="line"/>
      <point x="166.0" y="624.0" type="line"/>
      <point x="302.0" y="624.0" type="line" smooth="yes"/>
      <point x="394.0" y="624.0"/>
      <point x="447.0" y="588.0"/>
      <point x="447.0" y="507.0" type="curve" smooth="yes"/>
      <point x="447.0" y="422.0"/>
      <point x="394.0" y="390.0"/>
      <point x="302.0" y="390.0" type="curve" smooth="yes"/>
    </contour>
  </outline>
</glyph>
<glyph name="U" format="2">
  <advance width="697.0"/>
  <unicode hex="0055"/>
  <anchor x="348.0" y="0.0" name="bottom"/>
  <anchor x="364.0" y="0.0" name="ogonek"/>
  <anchor x="348.0" y="684.0" name="top"/>
  <anchor x="348.0" y="647.0" name="top_ring"/>
  <anchor x="639.0" y="700.0" name="topright"/>
  <outline>
    <contour>
      <point x="348.0" y="-13.0" type="curve" smooth="yes"/>
      <point x="519.0" y="-13.0"/>
      <point x="625.0" y="100.0"/>
      <point x="625.0" y="266.0" type="curve" smooth="yes"/>
      <point x="625.0" y="700.0" type="line"/>
      <point x="541.0" y="700.0" type="line"/>
      <point x="541.0" y="264.0" type="line" smooth="yes"/>
      <point x="541.0" y="136.0"/>
      <point x="471.0" y="64.0"/>
      <point x="348.0" y="64.0" type="curve" smooth="yes"/>
      <point x="226.0" y="64.0"/>
      <point x="156.0" y="138.0"/>
      <point x="156.0" y="271.0" type="curve" smooth="yes"/>
      <point x="156.0" y="700.0" type="line"/>
      <point x="72.0" y="700.0" type="line"/>
      <point x="72.0" y="259.0" type="line" smooth="yes"/>
      <point x="72.0" y="100.0"/>
      <point x="177.0" y="-13.0"/>
    </contour>
  </outline>
</glyph>
<glyph name="asciicircum" format="2">
  <advance width="600.0"/>
  <unicode hex="005E"/>
  <outline>
    <contour>
      <point x="102.0" y="474.0" type="line"/>
      <point x="203.0" y="474.0" type="line"/>
      <point x="301.0" y="639.0" type="line"/>
      <point x="305.0" y="639.0" type="line"/>
      <point x="400.0" y="474.0" type="line"/>
      <point x="498.0" y="474.0" type="line"/>
      <point x="341.0" y="713.0" type="line"/>
      <point x="266.0" y="713.0" type="line"/>
    </contour>
  </outline>
</glyph>
<glyph name="a" format="2">
  <advance width="610.0"/>
  <unicode hex="0061"/>
  <anchor x="293.0" y="0.0" name="bottom"/>
  <anchor x="460.0" y="0.0" name="ogonek"/>
  <anchor x="289.0" y="490.0" name="top"/>
  <outline>
    <contour>
      <point x="281.0" y="-13.0" type="curve" smooth="yes"/>
      <point x="373.0" y="-13.0"/>
      <point x="424.0" y="32.0"/>
      <point x="456.0" y="94.0" type="curve"/>
      <point x="462.0" y="94.0" type="line"/>
      <point x="462.0" y="0.0" type="line"/>
      <point x="538.0" y="0.0" type="line"/>
      <point x="538.0" y="490.0" type="line"/>
      <point x="462.0" y="490.0" type="line"/>
      <point x="462.0" y="399.0" type="line"/>
      <point x="456.0" y="399.0" type="line"/>
      <point x="424.0" y="459.0"/>
      <point x="369.0" y="503.0"/>
      <point x="281.0" y="503.0" type="curve" smooth="yes"/>
      <point x="141.0" y="503.0"/>
      <point x="36.0" y="396.0"/>
      <point x="36.0" y="244.0" type="curve" smooth="yes"/>
      <point x="36.0" y="92.0"/>
      <point x="141.0" y="-13.0"/>
    </contour>
    <contour>
      <point x="289.0" y="61.0" type="curve" smooth="yes"/>
      <point x="182.0" y="61.0"/>
      <point x="116.0" y="140.0"/>
      <point x="116.0" y="245.0" type="curve" smooth="yes"/>
      <point x="116.0" y="352.0"/>
      <point x="182.0" y="428.0"/>
      <point x="289.0" y="428.0" type="curve" smooth="yes"/>
      <point x="393.0" y="428.0"/>
      <point x="461.0" y="340.0"/>
      <point x="461.0" y="244.0" type="curve" smooth="yes"/>
      <point x="461.0" y="142.0"/>
      <point x="393.0" y="61.0"/>
    </contour>
  </outline>
</glyph>
<glyph name="t" format="2">
  <advance width="389.0"/>
  <unicode hex="0074"/>
  <anchor x="181.0" y="331.0" name="bar"/>
  <anchor x="248.0" y="0.0" name="bottom"/>
  <anchor x="175.0" y="276.0" name="center"/>
  <anchor x="175.0" y="615.0" name="top"/>
  <anchor x="303.0" y="740.0" name="topright"/>
  <outline>
    <contour>
      <point x="283.0" y="-13.0" type="curve" smooth="yes"/>
      <point x="313.0" y="-14.0"/>
      <point x="333.0" y="-11.0"/>
      <point x="372.0" y="-3.0" type="curve"/>
      <point x="372.0" y="68.0" type="line"/>
      <point x="345.0" y="61.0"/>
      <point x="321.0" y="60.0"/>
      <point x="301.0" y="60.0" type="curve" smooth="yes"/>
      <point x="240.0" y="60.0"/>
      <point x="212.0" y="89.0"/>
      <point x="212.0" y="146.0" type="curve" smooth="yes"/>
      <point x="212.0" y="622.0" type="line"/>
      <point x="132.0" y="608.0" type="line"/>
      <point x="132.0" y="141.0" type="line" smooth="yes"/>
      <point x="132.0" y="43.0"/>
      <point x="186.0" y="-10.0"/>
    </contour>
    <contour>
      <point x="17.0" y="418.0" type="line"/>
      <point x="372.0" y="418.0" type="line"/>
      <point x="372.0" y="490.0" type="line"/>
      <point x="17.0" y="490.0" type="line"/>
    </contour>
  </outline>
</glyph>
<glyph name="v" format="2">
  <advance width="508.0"/>
  <unicode hex="0076"/>
  <anchor x="254.0" y="0.0" name="bottom"/>
  <anchor x="254.0" y="490.0" name="top"/>
  <outline>
    <contour>
      <point x="207.0" y="0.0" type="line"/>
      <point x="300.0" y="0.0" type="line"/>
      <point x="491.0" y="490.0" type="line"/>
      <point x="400.0" y="490.0" type="line"/>
      <point x="293.0" y="174.0" type="line" smooth="yes"/>
      <point x="283.0" y="146.0"/>
      <point x="268.0" y="103.0"/>
      <point x="260.0" y="68.0" type="curve"/>
      <point x="252.0" y="68.0" type="line"/>
      <point x="244.0" y="103.0"/>
      <point x="227.0" y="145.0"/>
      <point x="217.0" y="174.0" type="curve" smooth="yes"/>
      <point x="108.0" y="490.0" type="line"/>
      <point x="17.0" y="490.0" type="line"/>
    </contour>
  </outline>
</glyph>
<glyph name="braceleft" format="2">
  <advance width="450.0"/>
  <unicode hex="007B"/>
  <outline>
    <contour>
      <point x="330.0" y="-224.0" type="curve" smooth="yes"/>
      <point x="350.0" y="-224.0"/>
      <point x="369.0" y="-223.0"/>
      <point x="388.0" y="-220.0" type="curve"/>
      <point x="388.0" y="-155.0" type="line"/>
      <point x="372.0" y="-159.0"/>
      <point x="358.0" y="-161.0"/>
      <point x="335.0" y="-161.0" type="curve" smooth="yes"/>
      <point x="274.0" y="-161.0"/>
      <point x="244.0" y="-126.0"/>
      <point x="244.0" y="-55.0" type="curve" smooth="yes"/>
      <point x="244.0" y="127.0" type="line" smooth="yes"/>
      <point x="244.0" y="241.0"/>
      <point x="151.0" y="270.0"/>
      <point x="133.0" y="272.0" type="curve"/>
      <point x="133.0" y="279.0" type="line"/>
      <point x="151.0" y="281.0"/>
      <point x="244.0" y="310.0"/>
      <point x="244.0" y="424.0" type="curve" smooth="yes"/>
      <point x="244.0" y="585.0" type="line" smooth="yes"/>
      <point x="244.0" y="656.0"/>
      <point x="274.0" y="691.0"/>
      <point x="335.0" y="691.0" type="curve" smooth="yes"/>
      <point x="358.0" y="691.0"/>
      <point x="372.0" y="689.0"/>
      <point x="388.0" y="685.0" type="curve"/>
      <point x="388.0" y="750.0" type="line"/>
      <point x="369.0" y="753.0"/>
      <point x="350.0" y="754.0"/>
      <point x="330.0" y="754.0" type="curve" smooth="yes"/>
      <point x="225.0" y="754.0"/>
      <point x="175.0" y="686.0"/>
      <point x="175.0" y="593.0" type="curve" smooth="yes"/>
      <point x="175.0" y="428.0" type="line" smooth="yes"/>
      <point x="175.0" y="365.0"/>
      <point x="148.0" y="311.0"/>
      <point x="68.0" y="307.0" type="curve"/>
      <point x="68.0" y="244.0" type="line"/>
      <point x="145.0" y="242.0"/>
      <point x="175.0" y="189.0"/>
      <point x="175.0" y="122.0" type="curve" smooth="yes"/>
      <point x="175.0" y="-63.0" type="line" smooth="yes"/>
      <point x="175.0" y="-156.0"/>
      <point x="225.0" y="-224.0"/>
    </contour>
  </outline>
</glyph>
<glyph name="paragraph" format="2">
  <advance width="590.0"/>
  <unicode hex="00B6"/>
  <outline>
    <contour>
      <point x="288.0" y="0.0" type="line"/>
      <point x="353.0" y="0.0" type="line"/>
      <point x="353.0" y="636.0" type="line"/>
      <point x="443.0" y="636.0" type="line"/>
      <point x="443.0" y="0.0" type="line"/>
      <point x="508.0" y="0.0" type="line"/>
      <point x="508.0" y="700.0" type="line"/>
      <point x="258.0" y="700.0" type="line" smooth="yes"/>
      <point x="124.0" y="700.0"/>
      <point x="42.0" y="636.0"/>
      <point x="42.0" y="510.0" type="curve" smooth="yes"/>
      <point x="42.0" y="384.0"/>
      <point x="124.0" y="318.0"/>
      <point x="258.0" y="318.0" type="curve" smooth="yes"/>
      <point x="288.0" y="318.0" type="line"/>
    </contour>
  </outline>
</glyph>
<glyph name="AE" format="2">
  <advance width="993.0"/>
  <unicode hex="00C6"/>
  <anchor x="565.0" y="0.0" name="bottom"/>
  <anchor x="876.0" y="0.0" name="ogonek"/>
  <anchor x="565.0" y="700.0" name="top"/>
  <anchor x="565.0" y="700.0" name="top_ring"/>
  <outline>
    <contour>
      <point x="13.0" y="0.0" type="line"/>
      <point x="111.0" y="0.0" type="line"/>
      <point x="226.0" y="177.0" type="line"/>
      <point x="245.0" y="208.0" type="line"/>
      <point x="438.0" y="500.0" type="line" smooth="yes"/>
      <point x="480.0" y="562.0"/>
      <point x="504.0" y="599.0"/>
      <point x="520.0" y="637.0" type="curve"/>
      <point x="498.0" y="625.0" type="line"/>
      <point x="568.0" y="625.0" type="line"/>
      <point x="568.0" y="700.0" type="line"/>
      <point x="483.0" y="700.0" type="line"/>
    </contour>
    <contour>
      <point x="169.0" y="156.0" type="line"/>
      <point x="574.0" y="156.0" type="line"/>
      <point x="574.0" y="232.0" type="line"/>
      <point x="216.0" y="232.0" type="line"/>
    </contour>
    <component base="E" xOffset="443.0"/>
  </outline>
</glyph>
<glyph name="florin" format="2">
  <advance width="614.0"/>
  <unicode hex="0192"/>
  <outline>
    <contour>
      <point x="45.0" y="1.0" type="line"/>
      <point x="74.0" y="-3.0"/>
      <point x="104.0" y="-7.0"/>
      <point x="133.0" y="-7.0" type="curve" smooth="yes"/>
      <point x="227.0" y="-7.0"/>
      <point x="284.0" y="33.0"/>
      <point x="315.0" y="172.0" type="curve" smooth="yes"/>
      <point x="388.0" y="504.0" type="line" smooth="yes"/>
      <point x="413.0" y="618.0"/>
      <point x="454.0" y="629.0"/>
      <point x="508.0" y="629.0" type="curve" smooth="yes"/>
      <point x="527.0" y="629.0"/>
      <point x="549.0" y="626.0"/>
      <point x="570.0" y="622.0" type="curve"/>
      <point x="570.0" y="700.0" type="line"/>
      <point x="553.0" y="706.0"/>
      <point x="532.0" y="707.0"/>
      <point x="507.0" y="707.0" type="curve" smooth="yes"/>
      <point x="406.0" y="707.0"/>
      <point x="339.0" y="661.0"/>
      <point x="308.0" y="521.0" type="curve" smooth="yes"/>
      <point x="235.0" y="189.0" type="line" smooth="yes"/>
      <point x="211.0" y="80.0"/>
      <point x="168.0" y="70.0"/>
      <point x="122.0" y="70.0" type="curve" smooth="yes"/>
      <point x="96.0" y="70.0"/>
      <point x="71.0" y="73.0"/>
      <point x="45.0" y="77.0" type="curve"/>
    </contour>
    <contour>
      <point x="75.0" y="335.0" type="line"/>
      <point x="540.0" y="335.0" type="line"/>
      <point x="540.0" y="407.0" type="line"/>
      <point x="75.0" y="407.0" type="line"/>
    </contour>
  </outline>
</glyph>
<glyph name="hookabovecomb" format="2">
  <unicode hex="0309"/>
  <anchor x="0.0" y="490.0" name="_top"/>
  <anchor x="0.0" y="662.0" name="top"/>
  <outline>
    <contour>
      <point x="-29.0" y="540.0" type="curve"/>
      <point x="27.0" y="540.0" type="line"/>
      <point x="48.0" y="555.0"/>
      <point x="57.0" y="579.0"/>
      <point x="57.0" y="603.0" type="curve" smooth="yes"/>
      <point x="57.0" y="648.0"/>
      <point x="28.0" y="686.0"/>
      <point x="-37.0" y="686.0" type="curve" smooth="yes"/>
      <point x="-63.0" y="686.0"/>
      <point x="-91.0" y="679.0"/>
      <point x="-112.0" y="661.0" type="curve"/>
      <point x="-80.0" y="615.0" type="line"/>
      <point x="-69.0" y="624.0"/>
      <point x="-55.0" y="631.0"/>
      <point x="-35.0" y="631.0" type="curve" smooth="yes"/>
      <point x="-9.0" y="631.0"/>
      <point x="10.0" y="617.0"/>
      <point x="10.0" y="595.0" type="curve" smooth="yes"/>
      <point x="10.0" y="572.0"/>
      <point x="-4.0" y="553.0"/>
    </contour>
  </outline>
</glyph>
<glyph name="brevebelowcomb" format="2">
  <unicode hex="032E"/>
  <anchor x="0.0" y="0.0" name="_bottom"/>
  <outline>
    <contour>
      <point x="0.0" y="-220.0" type="curve" smooth="yes"/>
      <point x="80.0" y="-220.0"/>
      <point x="135.0" y="-158.0"/>
      <point x="135.0" y="-77.0" type="curve"/>
      <point x="72.0" y="-77.0" type="line"/>
      <point x="74.0" y="-121.0"/>
      <point x="53.0" y="-169.0"/>
      <point x="0.0" y="-169.0" type="curve" smooth="yes"/>
      <point x="-50.0" y="-169.0"/>
      <point x="-74.0" y="-121.0"/>
      <point x="-72.0" y="-77.0" type="curve"/>
      <point x="-135.0" y="-77.0" type="line"/>
      <point x="-135.0" y="-158.0"/>
      <point x="-80.0" y="-220.0"/>
    </contour>
  </outline>
</glyph>
<glyph name="macronbelowcomb" format="2">
  <unicode hex="0331"/>
  <anchor x="0.0" y="0.0" name="_bottom"/>
  <outline>
    <contour>
      <point x="-135.0" y="-139.0" type="line"/>
      <point x="135.0" y="-139.0" type="line"/>
      <point x="135.0" y="-87.0" type="line"/>
      <point x="-135.0" y="-87.0" type="line"/>
    </contour>
  </outline>
</glyph>
<glyph name="slashlongcomb" format="2">
  <unicode hex="0338"/>
  <anchor x="288.0" y="264.0" name="_center"/>
  <outline>
    <contour>
      <point x="19.0" y="-40.0" type="line"/>
      <point x="88.0" y="-40.0" type="line"/>
      <point x="551.0" y="560.0" type="line"/>
      <point x="482.0" y="560.0" type="line"/>
    </contour>
  </outline>
</glyph>
<glyph name="colonsign" format="2">
  <advance width="637.0"/>
  <unicode hex="20A1"/>
  <outline>
    <contour>
      <point x="366.0" y="27.0" type="curve" smooth="yes"/>
      <point x="478.0" y="27.0"/>
      <point x="563.0" y="74.0"/>
      <point x="616.0" y="138.0" type="curve"/>
      <point x="560.0" y="184.0" type="line"/>
      <point x="497.0" y="115.0"/>
      <point x="456.0" y="99.0"/>
      <point x="371.0" y="99.0" type="curve" smooth="yes"/>
      <point x="200.0" y="99.0"/>
      <point x="127.0" y="251.0"/>
      <point x="127.0" y="354.0" type="curve" smooth="yes"/>
      <point x="127.0" y="428.0"/>
      <point x="177.0" y="601.0"/>
      <point x="367.0" y="601.0" type="curve" smooth="yes"/>
      <point x="446.0" y="601.0"/>
      <point x="507.0" y="577.0"/>
      <point x="553.0" y="520.0" type="curve"/>
      <point x="609.0" y="569.0" type="line"/>
      <point x="544.0" y="641.0"/>
      <point x="470.0" y="673.0"/>
      <point x="366.0" y="673.0" type="curve" smooth="yes"/>
      <point x="170.0" y="673.0"/>
      <point x="41.0" y="520.0"/>
      <point x="41.0" y="349.0" type="curve" smooth="yes"/>
      <point x="41.0" y="179.0"/>
      <point x="178.0" y="27.0"/>
    </contour>
    <contour>
      <point x="424.0" y="-69.0" type="line"/>
      <point x="512.0" y="775.0" type="line"/>
      <point x="440.0" y="775.0" type="line"/>
      <point x="352.0" y="-69.0" type="line"/>
    </contour>
    <contour>
      <point x="272.0" y="-69.0" type="line"/>
      <point x="360.0" y="775.0" type="line"/>
      <point x="288.0" y="775.0" type="line"/>
      <point x="200.0" y="-69.0" type="line"/>
    </contour>
  </outline>
</glyph>
<glyph name="dong" format="2">
  <advance width="586.0"/>
  <unicode hex="20AB"/>
  <anchor x="279.0" y="37.0" name="_bar"/>
  <outline>
    <contour>
      <point x="272.0" y="97.0" type="curve" smooth="yes"/>
      <point x="339.0" y="97.0"/>
      <point x="381.0" y="119.0"/>
      <point x="420.0" y="181.0" type="curve"/>
      <point x="426.0" y="181.0" type="line"/>
      <point x="426.0" y="107.0" type="line"/>
      <point x="502.0" y="107.0" type="line"/>
      <point x="502.0" y="700.0" type="line"/>
      <point x="422.0" y="700.0" type="line"/>
      <point x="422.0" y="450.0" type="line"/>
      <point x="415.0" y="450.0" type="line"/>
      <point x="379.0" y="508.0"/>
      <point x="334.0" y="531.0"/>
      <point x="272.0" y="531.0" type="curve" smooth="yes"/>
      <point x="148.0" y="531.0"/>
      <point x="50.0" y="442.0"/>
      <point x="50.0" y="313.0" type="curve" smooth="yes"/>
      <point x="50.0" y="185.0"/>
      <point x="148.0" y="97.0"/>
    </contour>
    <contour>
      <point x="272.0" y="167.0" type="curve" smooth="yes"/>
      <point x="192.0" y="167.0"/>
      <point x="130.0" y="228.0"/>
      <point x="130.0" y="314.0" type="curve" smooth="yes"/>
      <point x="130.0" y="400.0"/>
      <point x="192.0" y="461.0"/>
      <point x="272.0" y="461.0" type="curve" smooth="yes"/>
      <point x="364.0" y="461.0"/>
      <point x="423.0" y="396.0"/>
      <point x="423.0" y="313.0" type="curve" smooth="yes"/>
      <point x="423.0" y="231.0"/>
      <point x="364.0" y="167.0"/>
    </contour>
    <component base="strokeshortcomb" xScale="1.4862" xOffset="279.0" yOffset="-314.0"/>
    <component base="strokeshortcomb" xScale="0.8126" xOffset="439.0" yOffset="245.0"/>
  </outline>
</glyph>
<glyph name="euro" format="2">
  <advance width="681.0"/>
  <unicode hex="20AC"/>
  <outline>
    <contour>
      <point x="419.0" y="17.0" type="curve" smooth="yes"/>
      <point x="531.0" y="17.0"/>
      <point x="607.0" y="64.0"/>
      <point x="660.0" y="128.0" type="curve"/>
      <point x="604.0" y="174.0" type="line"/>
      <point x="543.0" y="106.0"/>
      <point x="499.0" y="89.0"/>
      <point x="424.0" y="89.0" type="curve" smooth="yes"/>
      <point x="311.0" y="89.0"/>
      <point x="221.0" y="146.0"/>
      <point x="182.0" y="283.0" type="curve" smooth="yes"/>
      <point x="176.0" y="304.0" type="line"/>
      <point x="168.0" y="344.0"/>
      <point x="167.0" y="360.0"/>
      <point x="175.0" y="400.0" type="curve"/>
      <point x="182.0" y="422.0" type="line"/>
      <point x="227.0" y="565.0"/>
      <point x="311.0" y="611.0"/>
      <point x="420.0" y="611.0" type="curve" smooth="yes"/>
      <point x="489.0" y="611.0"/>
      <point x="551.0" y="584.0"/>
      <point x="593.0" y="540.0" type="curve"/>
      <point x="641.0" y="595.0" type="line"/>
      <point x="588.0" y="648.0"/>
      <point x="523.0" y="683.0"/>
      <point x="419.0" y="683.0" type="curve" smooth="yes"/>
      <point x="223.0" y="683.0"/>
      <point x="85.0" y="530.0"/>
      <point x="85.0" y="349.0" type="curve" smooth="yes"/>
      <point x="85.0" y="169.0"/>
      <point x="231.0" y="17.0"/>
    </contour>
    <contour>
      <point x="-8.0" y="243.0" type="line"/>
      <point x="401.0" y="243.0" type="line"/>
      <point x="449.0" y="315.0" type="line"/>
      <point x="41.0" y="315.0" type="line"/>
    </contour>
    <contour>
      <point x="-11.0" y="385.0" type="line"/>
      <point x="494.0" y="385.0" type="line"/>
      <point x="543.0" y="457.0" type="line"/>
      <point x="39.0" y="457.0" type="line"/>
    </contour>
  </outline>
</glyph>
<glyph name="guarani" format="2">
  <advance width="719.0"/>
  <unicode hex="20B2"/>
  <anchor x="370.0" y="653.0" name="_TopCurrency"/>
  <anchor x="368.0" y="40.0" name="bottom"/>
  <anchor x="488.0" y="48.0" name="ogonek"/>
  <anchor x="368.0" y="662.0" name="top"/>
  <outline>
    <contour>
      <point x="368.0" y="28.0" type="curve" smooth="yes"/>
      <point x="547.0" y="28.0"/>
      <point x="678.0" y="152.0"/>
      <point x="678.0" y="325.0" type="curve" smooth="yes"/>
      <point x="678.0" y="340.0"/>
      <point x="677.0" y="355.0"/>
      <point x="675.0" y="366.0" type="curve"/>
      <point x="336.0" y="366.0" type="line"/>
      <point x="336.0" y="300.0" type="line"/>
      <point x="630.0" y="301.0" type="line"/>
      <point x="598.0" y="322.0" type="line"/>
      <point x="596.0" y="188.0"/>
      <point x="503.0" y="106.0"/>
      <point x="369.0" y="106.0" type="curve" smooth="yes"/>
      <point x="229.0" y="106.0"/>
      <point x="125.0" y="206.0"/>
      <point x="125.0" y="350.0" type="curve" smooth="yes"/>
      <point x="125.0" y="494.0"/>
      <point x="220.0" y="596.0"/>
      <point x="369.0" y="596.0" type="curve" smooth="yes"/>
      <point x="437.0" y="596.0"/>
      <point x="503.0" y="580.0"/>
      <point x="546.0" y="528.0" type="curve"/>
      <point x="604.0" y="576.0" type="line"/>
      <point x="540.0" y="644.0"/>
      <point x="466.0" y="673.0"/>
      <point x="368.0" y="673.0" type="curve" smooth="yes"/>
      <point x="179.0" y="673.0"/>
      <point x="41.0" y="533.0"/>
      <point x="41.0" y="350.0" type="curve" smooth="yes"/>
      <point x="41.0" y="168.0"/>
      <point x="183.0" y="28.0"/>
    </contour>
    <component base="verticalTopCurrencycomb" xOffset="370.0"/>
    <component base="verticalBottomCurrencycomb" xOffset="370.0"/>
  </outline>
</glyph>
<glyph name="rupeeIndian" format="2">
  <advance width="608.0"/>
  <unicode hex="20B9"/>
  <outline>
    <contour>
      <point x="367.0" y="30.0" type="line"/>
      <point x="468.0" y="30.0" type="line"/>
      <point x="263.0" y="312.0" type="line"/>
      <point x="256.0" y="278.0" type="line"/>
      <point x="361.0" y="281.0"/>
      <point x="464.0" y="347.0"/>
      <point x="464.0" y="473.0" type="curve" smooth="yes"/>
      <point x="464.0" y="605.0"/>
      <point x="356.0" y="670.0"/>
      <point x="229.0" y="670.0" type="curve" smooth="yes"/>
      <point x="42.0" y="670.0" type="line"/>
      <point x="42.0" y="594.0" type="line"/>
      <point x="217.0" y="594.0" type="line" smooth="yes"/>
      <point x="313.0" y="594.0"/>
      <point x="378.0" y="562.0"/>
      <point x="378.0" y="473.0" type="curve" smooth="yes"/>
      <point x="378.0" y="381.0"/>
      <point x="313.0" y="349.0"/>
      <point x="217.0" y="349.0" type="curve" smooth="yes"/>
      <point x="42.0" y="349.0" type="line"/>
      <point x="42.0" y="273.0" type="line"/>
      <point x="188.0" y="273.0" type="line"/>
    </contour>
    <contour>
      <point x="42.0" y="435.0" type="line"/>
      <point x="544.0" y="435.0" type="line"/>
      <point x="592.0" y="507.0" type="line"/>
      <point x="91.0" y="507.0" type="line"/>
    </contour>
    <contour>
      <point x="194.0" y="598.0" type="line"/>
      <point x="574.0" y="598.0" type="line"/>
      <point x="623.0" y="670.0" type="line"/>
      <point x="194.0" y="670.0" type="line"/>
    </contour>
  </outline>
</glyph>
<glyph name="liraTurkish" format="2">
  <advance width="563.0"/>
  <unicode hex="20BA"/>
  <outline>
    <contour>
      <point x="42.0" y="303.0" type="line"/>
      <point x="503.0" y="398.0" type="line"/>
      <point x="503.0" y="475.0" type="line"/>
      <point x="42.0" y="380.0" type="line"/>
    </contour>
    <contour>
      <point x="42.0" y="430.0" type="line"/>
      <point x="503.0" y="525.0" type="line"/>
      <point x="503.0" y="602.0" type="line"/>
      <point x="42.0" y="507.0" type="line"/>
    </contour>
    <contour>
      <point x="132.0" y="20.0" type="line"/>
      <point x="234.0" y="20.0" type="line" smooth="yes"/>
      <point x="385.0" y="20.0"/>
      <point x="500.0" y="106.0"/>
      <point x="516.0" y="257.0" type="curve" smooth="yes"/>
      <point x="521.0" y="305.0" type="line"/>
      <point x="448.0" y="312.0" type="line"/>
      <point x="443.0" y="267.0" type="line" smooth="yes"/>
      <point x="430.0" y="148.0"/>
      <point x="353.0" y="96.0"/>
      <point x="235.0" y="96.0" type="curve" smooth="yes"/>
      <point x="214.0" y="96.0" type="line"/>
      <point x="214.0" y="680.0" type="line"/>
      <point x="132.0" y="680.0" type="line"/>
    </contour>
  </outline>
</glyph>
<glyph name="manat" format="2">
  <advance width="507.0"/>
  <unicode hex="20BC"/>
  <outline>
    <contour>
      <point x="50.0" y="30.0" type="line"/>
      <point x="129.0" y="30.0" type="line"/>
      <point x="129.0" y="205.0" type="line" smooth="yes"/>
      <point x="129.0" y="300.0"/>
      <point x="172.0" y="349.0"/>
      <point x="253.0" y="349.0" type="curve" smooth="yes"/>
      <point x="334.0" y="349.0"/>
      <point x="377.0" y="300.0"/>
      <point x="377.0" y="205.0" type="curve" smooth="yes"/>
      <point x="377.0" y="30.0" type="line"/>
      <point x="457.0" y="30.0" type="line"/>
      <point x="457.0" y="205.0" type="line" smooth="yes"/>
      <point x="457.0" y="345.0"/>
      <point x="378.0" y="422.0"/>
      <point x="253.0" y="422.0" type="curve" smooth="yes"/>
      <point x="128.0" y="422.0"/>
      <point x="50.0" y="345.0"/>
      <point x="50.0" y="205.0" type="curve" smooth="yes"/>
    </contour>
    <contour>
      <point x="219.0" y="30.0" type="line"/>
      <point x="291.0" y="30.0" type="line"/>
      <point x="291.0" y="490.0" type="line"/>
      <point x="219.0" y="490.0" type="line"/>
    </contour>
  </outline>
</glyph>
<glyph name="riyalSaudi" format="2">
  <advance width="600.0"/>
  <unicode hex="20C1"/>
  <outline>
    <contour>
      <point x="18.0" y="65.0" type="line"/>
      <point x="135.0" y="94.0" type="line" smooth="yes"/>
      <point x="194.0" y="109.0"/>
      <point x="264.0" y="182.0"/>
      <point x="264.0" y="245.0" type="curve" smooth="yes"/>
      <point x="264.0" y="767.0" type="line"/>
      <point x="194.0" y="732.0" type="line"/>
      <point x="191.0" y="193.0" type="line"/>
      <point x="34.0" y="155.0" type="line"/>
    </contour>
    <contour>
      <point x="341.0" y="31.0" type="line"/>
      <point x="566.0" y="80.0" type="line"/>
      <point x="583.0" y="168.0" type="line"/>
      <point x="361.0" y="120.0" type="line"/>
    </contour>
    <contour>
      <point x="18.0" y="239.0" type="line"/>
      <point x="564.0" y="361.0" type="line"/>
      <point x="583.0" y="452.0" type="line"/>
      <point x="34.0" y="330.0" type="line"/>
    </contour>
    <contour>
      <point x="341.0" y="174.0" type="line"/>
      <point x="564.0" y="219.0" type="line"/>
      <point x="583.0" y="310.0" type="line"/>
      <point x="362.0" y="260.0" type="line"/>
    </contour>
    <contour>
      <point x="341.0" y="174.0" type="line"/>
      <point x="411.0" y="191.0" type="line"/>
      <point x="411.0" y="713.0" type="line"/>
      <point x="341.0" y="679.0" type="line"/>
    </contour>
  </outline>
</glyph>
<glyph name="trademark" format="2">
  <advance width="840.0"/>
  <unicode hex="2122"/>
  <outline>
    <contour>
      <point x="368.0" y="315.0" type="line"/>
      <point x="425.0" y="315.0" type="line"/>
      <point x="425.0" y="505.0" type="line" smooth="yes"/>
      <point x="425.0" y="596.0"/>
      <point x="425.0" y="630.0"/>
      <point x="418.0" y="700.0" type="curve"/>
      <point x="393.0" y="692.0" type="line"/>
      <point x="567.0" y="315.0" type="line"/>
      <point x="595.0" y="315.0" type="line"/>
      <point x="772.0" y="695.0" type="line"/>
      <point x="742.0" y="667.0" type="line"/>
      <point x="735.0" y="603.0"/>
      <point x="734.0" y="572.0"/>
      <point x="734.0" y="488.0" type="curve" smooth="yes"/>
      <point x="734.0" y="315.0" type="line"/>
      <point x="795.0" y="315.0" type="line"/>
      <point x="795.0" y="700.0" type="line"/>
      <point x="713.0" y="700.0" type="line"/>
      <point x="622.0" y="505.0" type="line" smooth="yes"/>
      <point x="574.0" y="404.0"/>
      <point x="574.0" y="381.0"/>
      <point x="566.0" y="348.0" type="curve"/>
      <point x="599.0" y="348.0" type="line"/>
      <point x="592.0" y="381.0"/>
      <point x="590.0" y="403.0"/>
      <point x="541.0" y="505.0" type="curve" smooth="yes"/>
      <point x="451.0" y="700.0" type="line"/>
      <point x="368.0" y="700.0" type="line"/>
    </contour>
    <contour>
      <point x="142.0" y="315.0" type="line"/>
      <point x="204.0" y="315.0" type="line"/>
      <point x="204.0" y="670.0" type="line"/>
      <point x="179.0" y="644.0" type="line"/>
      <point x="321.0" y="644.0" type="line"/>
      <point x="321.0" y="700.0" type="line"/>
      <point x="25.0" y="700.0" type="line"/>
      <point x="25.0" y="644.0" type="line"/>
      <point x="167.0" y="644.0" type="line"/>
      <point x="142.0" y="670.0" type="line"/>
    </contour>
  </outline>
</glyph>
<glyph name="upArrow" format="2">
  <advance width="600.0"/>
  <unicode hex="2191"/>
  <outline>
    <contour>
      <point x="259.0" y="40.0" type="line"/>
      <point x="339.0" y="41.0" type="line"/>
      <point x="339.0" y="519.0" type="line"/>
      <point x="345.0" y="521.0" type="line"/>
      <point x="467.0" y="387.0" type="line"/>
      <point x="523.0" y="442.0" type="line"/>
      <point x="300.0" y="672.0" type="line"/>
      <point x="77.0" y="442.0" type="line"/>
      <point x="133.0" y="387.0" type="line"/>
      <point x="253.0" y="520.0" type="line"/>
      <point x="259.0" y="518.0" type="line"/>
    </contour>
  </outline>
</glyph>
<glyph name="radical" format="2">
  <advance width="604.0"/>
  <unicode hex="221A"/>
  <outline>
    <contour>
      <point x="159.0" y="-220.0" type="line"/>
      <point x="229.0" y="-220.0" type="line"/>
      <point x="414.0" y="642.0" type="line"/>
      <point x="565.0" y="642.0" type="line"/>
      <point x="565.0" y="700.0" type="line"/>
      <point x="357.0" y="700.0" type="line"/>
      <point x="215.0" y="-17.0" type="line" smooth="yes"/>
      <point x="206.0" y="-64.0"/>
      <point x="198.0" y="-113.0"/>
      <point x="194.0" y="-160.0" type="curve"/>
      <point x="192.0" y="-160.0" type="line"/>
      <point x="188.0" y="-111.0"/>
      <point x="177.0" y="-65.0"/>
      <point x="166.0" y="-16.0" type="curve" smooth="yes"/>
      <point x="121.0" y="176.0" type="line"/>
      <point x="55.0" y="176.0" type="line"/>
    </contour>
  </outline>
</glyph>
<glyph name="greaterequal" format="2">
  <advance width="596.0"/>
  <unicode hex="2265"/>
  <outline>
    <contour>
      <point x="65.0" y="220.0" type="line"/>
      <point x="544.0" y="430.0" type="line"/>
      <point x="65.0" y="640.0" type="line"/>
      <point x="65.0" y="555.0" type="line"/>
      <point x="371.0" y="433.0" type="line"/>
      <point x="371.0" y="429.0" type="line"/>
      <point x="65.0" y="305.0" type="line"/>
    </contour>
    <contour>
      <point x="65.0" y="100.0" type="line"/>
      <point x="517.0" y="100.0" type="line"/>
      <point x="517.0" y="172.0" type="line"/>
      <point x="65.0" y="172.0" type="line"/>
    </contour>
  </outline>
</glyph>
<glyph name="blackSmallSquare" format="2">
  <advance width="357.0"/>
  <unicode hex="25AA"/>
  <outline>
    <contour>
      <point x="90.0" y="275.0" type="line"/>
      <point x="267.0" y="275.0" type="line"/>
      <point x="267.0" y="451.0" type="line"/>
      <point x="90.0" y="451.0" type="line"/>
    </contour>
  </outline>
</glyph>
<glyph name="whiteStar" format="2">
  <advance width="809.0"/>
  <unicode hex="2606"/>
  <outline>
    <contour>
      <point x="157.0" y="-13.0" type="line"/>
      <point x="404.0" y="167.0" type="line"/>
      <point x="651.0" y="-13.0" type="line"/>
      <point x="557.0" y="277.0" type="line"/>
      <point x="804.0" y="457.0" type="line"/>
      <point x="499.0" y="457.0" type="line"/>
      <point x="404.0" y="747.0" type="line"/>
      <point x="310.0" y="457.0" type="line"/>
      <point x="5.0" y="457.0" type="line"/>
      <point x="252.0" y="277.0" type="line"/>
    </contour>
    <contour>
      <point x="214.0" y="63.0" type="line"/>
      <point x="300.0" y="291.0" type="line"/>
      <point x="92.0" y="428.0" type="line"/>
      <point x="341.0" y="419.0" type="line"/>
      <point x="404.0" y="643.0" type="line"/>
      <point x="468.0" y="419.0" type="line"/>
      <point x="717.0" y="428.0" type="line"/>
      <point x="509.0" y="291.0" type="line"/>
      <point x="593.0" y="63.0" type="line"/>
      <point x="404.0" y="216.0" type="line"/>
    </contour>
  </outline>
</glyph>
<glyph name="blackFourPointedStar" format="2">
  <advance width="585.0"/>
  <unicode hex="2726"/>
  <outline>
    <contour>
      <point x="286.0" y="39.0" type="curve"/>
      <point x="298.0" y="39.0" type="line"/>
      <point x="385.0" y="248.0"/>
      <point x="404.0" y="271.0"/>
      <point x="580.0" y="335.0" type="curve"/>
      <point x="580.0" y="349.0" type="line"/>
      <point x="404.0" y="413.0"/>
      <point x="385.0" y="436.0"/>
      <point x="298.0" y="645.0" type="curve"/>
      <point x="286.0" y="645.0" type="line"/>
      <point x="199.0" y="436.0"/>
      <point x="180.0" y="413.0"/>
      <point x="5.0" y="349.0" type="curve"/>
      <point x="5.0" y="335.0" type="line"/>
      <point x="180.0" y="271.0"/>
      <point x="199.0" y="248.0"/>
    </contour>
  </outline>
</glyph>
<glyph name="rightanglebracket-math" format="2">
  <advance width="290.0"/>
  <unicode hex="27E9"/>
  <outline>
    <contour>
      <point x="47.0" y="-220.0" type="line"/>
      <point x="110.0" y="-220.0" type="line"/>
      <point x="280.0" y="240.0" type="line"/>
      <point x="110.0" y="700.0" type="line"/>
      <point x="48.0" y="700.0" type="line"/>
      <point x="217.0" y="238.0" type="line"/>
      <point x="217.0" y="233.0" type="line"/>
    </contour>
  </outline>
</glyph>
<glyph name="fi" format="2">
  <advance width="588.0"/>
  <unicode hex="FB01"/>
  <anchor x="155.0" y="0.0" name="bottom_1"/>
  <anchor x="242.0" y="740.0" name="top_1"/>
  <anchor x="477.0" y="0.0" name="bottom_2"/>
  <anchor x="439.0" y="0.0" name="ogonek_2"/>
  <anchor x="477.0" y="490.0" name="top_2"/>
  <anchor x="392.0" y="0.0" name="caret_1"/>
  <outline>
    <contour>
      <point x="17.0" y="418.0" type="line"/>
      <point x="507.0" y="418.0" type="line"/>
      <point x="517.0" y="490.0" type="line"/>
      <point x="17.0" y="490.0" type="line"/>
    </contour>
    <component base="f"/>
    <component base="i" xOffset="365.0"/>
  </outline>
</glyph>
<glyph name="caroncomb.alt" format="2">
  <anchor x="37.0" y="740.0" name="_topright"/>
  <outline>
    <contour>
      <point x="11.0" y="516.0" type="line"/>
      <point x="68.0" y="516.0" type="line"/>
      <point x="155.0" y="740.0" type="line"/>
      <point x="61.0" y="740.0" type="line"/>
    </contour>
  </outline>
</glyph>
<glyph name="f_f_i.ss11" format="2">
  <advance width="886.0"/>
  <anchor x="787.0" y="0.0" name="bottom_1"/>
  <anchor x="749.0" y="0.0" name="ogonek_1"/>
  <anchor x="787.0" y="490.0" name="top_1"/>
  <anchor x="369.0" y="0.0" name="caret_1"/>
  <anchor x="685.0" y="0.0" name="caret_2"/>
  <outline>
    <contour>
      <point x="117.0" y="0.0" type="line"/>
      <point x="197.0" y="0.0" type="line"/>
      <point x="197.0" y="546.0" type="line" smooth="yes"/>
      <point x="197.0" y="628.0"/>
      <point x="234.0" y="679.0"/>
      <point x="315.0" y="679.0" type="curve" smooth="yes"/>
      <point x="391.0" y="679.0"/>
      <point x="432.0" y="628.0"/>
      <point x="432.0" y="546.0" type="curve" smooth="yes"/>
      <point x="432.0" y="0.0" type="line"/>
      <point x="512.0" y="0.0" type="line"/>
      <point x="512.0" y="546.0" type="line" smooth="yes"/>
      <point x="512.0" y="628.0"/>
      <point x="549.0" y="679.0"/>
      <point x="630.0" y="679.0" type="curve" smooth="yes"/>
      <point x="706.0" y="679.0"/>
      <point x="747.0" y="628.0"/>
      <point x="747.0" y="546.0" type="curve"/>
      <point x="827.0" y="546.0" type="line"/>
      <point x="827.0" y="666.0"/>
      <point x="746.0" y="753.0"/>
      <point x="630.0" y="753.0" type="curve" smooth="yes"/>
      <point x="560.0" y="753.0"/>
      <point x="497.0" y="717.0"/>
      <point x="474.0" y="656.0" type="curve"/>
      <point x="468.0" y="656.0" type="line"/>
      <point x="444.0" y="718.0"/>
      <point x="381.0" y="753.0"/>
      <point x="315.0" y="753.0" type="curve" smooth="yes"/>
      <point x="194.0" y="753.0"/>
      <point x="117.0" y="666.0"/>
      <point x="117.0" y="550.0" type="curve" smooth="yes"/>
    </contour>
    <contour>
      <point x="17.0" y="418.0" type="line"/>
      <point x="675.0" y="418.0" type="line"/>
      <point x="675.0" y="490.0" type="line"/>
      <point x="17.0" y="490.0" type="line"/>
    </contour>
    <component base="idotless" xOffset="675.0"/>
  </outline>
</glyph>
<glyph name="f_f_l" format="2">
  <advance width="900.0"/>
  <anchor x="155.0" y="0.0" name="bottom_1"/>
  <anchor x="242.0" y="740.0" name="top_1"/>
  <anchor x="471.0" y="0.0" name="bottom_2"/>
  <anchor x="558.0" y="740.0" name="top_2"/>
  <anchor x="788.0" y="0.0" name="bottom_3"/>
  <anchor x="788.0" y="393.0" name="center_3"/>
  <anchor x="828.0" y="0.0" name="ogonek_3"/>
  <anchor x="788.0" y="740.0" name="top_3"/>
  <anchor x="878.0" y="740.0" name="topright_3"/>
  <anchor x="369.0" y="0.0" name="caret_1"/>
  <anchor x="685.0" y="0.0" name="caret_2"/>
  <outline>
    <contour>
      <point x="17.0" y="418.0" type="line"/>
      <point x="818.0" y="418.0" type="line"/>
      <point x="828.0" y="490.0" type="line"/>
      <point x="17.0" y="490.0" type="line"/>
    </contour>
    <component base="f"/>
    <component base="f" xOffset="316.0"/>
    <component base="l" xOffset="676.0"/>
  </outline>
</glyph>
<glyph name="f_i.ss11" format="2">
  <advance width="584.0"/>
  <anchor x="472.0" y="0.0" name="bottom_1"/>
  <anchor x="434.0" y="0.0" name="ogonek_1"/>
  <anchor x="472.0" y="490.0" name="top_1"/>
  <anchor x="369.0" y="0.0" name="caret_1"/>
  <outline>
    <contour>
      <point x="117.0" y="0.0" type="line"/>
      <point x="197.0" y="0.0" type="line"/>
      <point x="197.0" y="546.0" type="line" smooth="yes"/>
      <point x="197.0" y="628.0"/>
      <point x="234.0" y="679.0"/>
      <point x="315.0" y="679.0" type="curve" smooth="yes"/>
      <point x="391.0" y="679.0"/>
      <point x="432.0" y="628.0"/>
      <point x="432.0" y="546.0" type="curve"/>
      <point x="512.0" y="546.0" type="line"/>
      <point x="512.0" y="666.0"/>
      <point x="431.0" y="753.0"/>
      <point x="315.0" y="753.0" type="curve" smooth="yes"/>
      <point x="194.0" y="753.0"/>
      <point x="117.0" y="666.0"/>
      <point x="117.0" y="550.0" type="curve" smooth="yes"/>
    </contour>
    <contour>
      <point x="17.0" y="418.0" type="line"/>
      <point x="360.0" y="418.0" type="line"/>
      <point x="360.0" y="490.0" type="line"/>
      <point x="17.0" y="490.0" type="line"/>
    </contour>
    <component base="idotless" xOffset="360.0"/>
  </outline>
</glyph>
<glyph name="f_l.ss11" format="2">
  <advance width="604.0"/>
  <anchor x="369.0" y="0.0" name="caret_1"/>
  <outline>
    <contour>
      <point x="117.0" y="0.0" type="line"/>
      <point x="197.0" y="0.0" type="line"/>
      <point x="197.0" y="546.0" type="line" smooth="yes"/>
      <point x="197.0" y="628.0"/>
      <point x="244.0" y="679.0"/>
      <point x="325.0" y="679.0" type="curve" smooth="yes"/>
      <point x="401.0" y="679.0"/>
      <point x="452.0" y="628.0"/>
      <point x="452.0" y="546.0" type="curve" smooth="yes"/>
      <point x="452.0" y="0.0" type="line"/>
      <point x="532.0" y="0.0" type="line"/>
      <point x="532.0" y="550.0" type="line" smooth="yes"/>
      <point x="532.0" y="666.0"/>
      <point x="441.0" y="753.0"/>
      <point x="325.0" y="753.0" type="curve" smooth="yes"/>
      <point x="204.0" y="753.0"/>
      <point x="117.0" y="666.0"/>
      <point x="117.0" y="550.0" type="curve" smooth="yes"/>
    </contour>
    <contour>
      <point x="17.0" y="418.0" type="line"/>
      <point x="370.0" y="418.0" type="line"/>
      <point x="370.0" y="490.0" type="line"/>
      <point x="17.0" y="490.0" type="line"/>
    </contour>
  </outline>
</glyph>
<glyph name="five.numr" format="2">
  <advance width="330.0"/>
  <outline>
    <contour>
      <point x="157.0" y="308.0" type="curve" smooth="yes"/>
      <point x="231.0" y="308.0"/>
      <point x="289.0" y="361.0"/>
      <point x="289.0" y="435.0" type="curve" smooth="yes"/>
      <point x="289.0" y="499.0"/>
      <point x="236.0" y="555.0"/>
      <point x="168.0" y="555.0" type="curve" smooth="yes"/>
      <point x="153.0" y="555.0"/>
      <point x="137.0" y="552.0"/>
      <point x="125.0" y="548.0" type="curve"/>
      <point x="123.0" y="549.0" type="line"/>
      <point x="148.0" y="680.0" type="line"/>
      <point x="113.0" y="652.0" type="line"/>
      <point x="266.0" y="652.0" type="line"/>
      <point x="266.0" y="700.0" type="line"/>
      <point x="99.0" y="700.0" type="line"/>
      <point x="54.0" y="472.0" type="line"/>
      <point x="88.0" y="494.0"/>
      <point x="107.0" y="505.0"/>
      <point x="154.0" y="505.0" type="curve" smooth="yes"/>
      <point x="200.0" y="505.0"/>
      <point x="237.0" y="477.0"/>
      <point x="237.0" y="433.0" type="curve" smooth="yes"/>
      <point x="237.0" y="384.0"/>
      <point x="199.0" y="356.0"/>
      <point x="158.0" y="356.0" type="curve" smooth="yes"/>
      <point x="120.0" y="356.0"/>
      <point x="94.0" y="371.0"/>
      <point x="69.0" y="398.0" type="curve"/>
      <point x="35.0" y="361.0" type="line"/>
      <point x="63.0" y="325.0"/>
      <point x="109.0" y="308.0"/>
    </contour>
  </outline>
</glyph>
<glyph name="four.numr" format="2">
  <advance width="305.0"/>
  <outline>
    <contour>
      <point x="180.0" y="313.0" type="line"/>
      <point x="234.0" y="313.0" type="line"/>
      <point x="234.0" y="427.0" type="line"/>
      <point x="279.0" y="427.0" type="line"/>
      <point x="279.0" y="476.0" type="line"/>
      <point x="234.0" y="476.0" type="line"/>
      <point x="234.0" y="706.0" type="line"/>
      <point x="196.0" y="706.0" type="line"/>
      <point x="9.0" y="447.0" type="line"/>
      <point x="9.0" y="427.0" type="line"/>
      <point x="180.0" y="427.0" type="line"/>
    </contour>
    <contour>
      <point x="91.0" y="476.0" type="line"/>
      <point x="91.0" y="477.0" type="line"/>
      <point x="94.0" y="480.0"/>
      <point x="97.0" y="483.0"/>
      <point x="99.0" y="486.0" type="curve" smooth="yes"/>
      <point x="167.0" y="580.0" type="line" smooth="yes"/>
      <point x="173.0" y="588.0"/>
      <point x="176.0" y="596.0"/>
      <point x="181.0" y="608.0" type="curve"/>
      <point x="182.0" y="608.0" type="line"/>
      <point x="181.0" y="601.0"/>
      <point x="181.0" y="593.0"/>
      <point x="181.0" y="585.0" type="curve" smooth="yes"/>
      <point x="181.0" y="476.0" type="line"/>
    </contour>
  </outline>
</glyph>
<glyph name="guarani.ss02" format="2">
  <advance width="657.0"/>
  <anchor x="378.0" y="653.0" name="_TopCurrency"/>
  <outline>
    <contour>
      <point x="368.0" y="31.0" type="curve" smooth="yes"/>
      <point x="474.0" y="31.0"/>
      <point x="558.0" y="69.0"/>
      <point x="624.0" y="133.0" type="curve"/>
      <point x="624.0" y="371.0" type="line"/>
      <point x="336.0" y="371.0" type="line"/>
      <point x="336.0" y="303.0" type="line"/>
      <point x="583.0" y="303.0" type="line"/>
      <point x="548.0" y="326.0" type="line"/>
      <point x="548.0" y="118.0" type="line"/>
      <point x="570.0" y="182.0" type="line"/>
      <point x="512.0" y="129.0"/>
      <point x="456.0" y="104.0"/>
      <point x="369.0" y="104.0" type="curve" smooth="yes"/>
      <point x="232.0" y="104.0"/>
      <point x="133.0" y="205.0"/>
      <point x="133.0" y="354.0" type="curve" smooth="yes"/>
      <point x="133.0" y="504.0"/>
      <point x="232.0" y="606.0"/>
      <point x="369.0" y="606.0" type="curve" smooth="yes"/>
      <point x="447.0" y="606.0"/>
      <point x="519.0" y="572.0"/>
      <point x="554.0" y="530.0" type="curve"/>
      <point x="612.0" y="578.0" type="line"/>
      <point x="552.0" y="647.0"/>
      <point x="470.0" y="679.0"/>
      <point x="368.0" y="679.0" type="curve" smooth="yes"/>
      <point x="189.0" y="679.0"/>
      <point x="51.0" y="544.0"/>
      <point x="51.0" y="354.0" type="curve" smooth="yes"/>
      <point x="51.0" y="165.0"/>
      <point x="193.0" y="31.0"/>
    </contour>
    <component base="verticalTopCurrencycomb" xOffset="378.0"/>
    <component base="verticalBottomCurrencycomb" xOffset="378.0"/>
  </outline>
</glyph>
<glyph name="horncomb.case" format="2">
  <anchor x="180.0" y="700.0" name="_topright"/>
  <outline>
    <contour>
      <point x="182.0" y="625.0" type="curve" smooth="yes"/>
      <point x="251.0" y="625.0"/>
      <point x="311.0" y="669.0"/>
      <point x="311.0" y="745.0" type="curve" smooth="yes"/>
      <point x="311.0" y="780.0"/>
      <point x="306.0" y="795.0"/>
      <point x="301.0" y="810.0" type="curve"/>
      <point x="225.0" y="810.0" type="line"/>
      <point x="232.0" y="793.0"/>
      <point x="237.0" y="775.0"/>
      <point x="237.0" y="755.0" type="curve" smooth="yes"/>
      <point x="237.0" y="725.0"/>
      <point x="219.0" y="692.0"/>
      <point x="165.0" y="692.0" type="curve" smooth="yes"/>
      <point x="126.0" y="692.0"/>
      <point x="32.0" y="713.0"/>
      <point x="-25.0" y="713.0" type="curve"/>
      <point x="-25.0" y="646.0" type="line"/>
      <point x="106.0" y="646.0"/>
      <point x="121.0" y="625.0"/>
    </contour>
  </outline>
</glyph>
<glyph name="macroncomb.case" format="2">
  <anchor x="0.0" y="700.0" name="_top"/>
  <anchor x="0.0" y="773.0" name="top"/>
  <outline>
    <contour>
      <point x="-132.0" y="740.0" type="line"/>
      <point x="133.0" y="740.0" type="line"/>
      <point x="133.0" y="792.0" type="line"/>
      <point x="-132.0" y="792.0" type="line"/>
    </contour>
  </outline>
</glyph>
<glyph name="nine.numr" format="2">
  <advance width="318.0"/>
  <outline>
    <contour>
      <point x="88.0" y="313.0" type="line"/>
      <point x="151.0" y="313.0" type="line"/>
      <point x="248.0" y="476.0" type="line" smooth="yes"/>
      <point x="268.0" y="508.0"/>
      <point x="286.0" y="543.0"/>
      <point x="286.0" y="581.0" type="curve" smooth="yes"/>
      <point x="286.0" y="659.0"/>
      <point x="230.0" y="706.0"/>
      <point x="156.0" y="706.0" type="curve" smooth="yes"/>
      <point x="88.0" y="706.0"/>
      <point x="28.0" y="662.0"/>
      <point x="28.0" y="580.0" type="curve" smooth="yes"/>
      <point x="28.0" y="482.0"/>
      <point x="118.0" y="444.0"/>
      <point x="181.0" y="470.0" type="curve"/>
    </contour>
    <contour>
      <point x="153.0" y="507.0" type="curve" smooth="yes"/>
      <point x="108.0" y="507.0"/>
      <point x="82.0" y="541.0"/>
      <point x="82.0" y="581.0" type="curve" smooth="yes"/>
      <point x="82.0" y="634.0"/>
      <point x="117.0" y="658.0"/>
      <point x="156.0" y="658.0" type="curve" smooth="yes"/>
      <point x="195.0" y="658.0"/>
      <point x="231.0" y="632.0"/>
      <point x="231.0" y="580.0" type="curve" smooth="yes"/>
      <point x="231.0" y="534.0"/>
      <point x="199.0" y="507.0"/>
    </contour>
  </outline>
</glyph>
<glyph name="one.ss10" format="2">
  <advance width="268.0"/>
  <outline>
    <contour>
      <point x="99.0" y="0.0" type="line"/>
      <point x="184.0" y="0.0" type="line"/>
      <point x="184.0" y="699.0" type="line"/>
      <point x="6.0" y="700.0" type="line"/>
      <point x="6.0" y="624.0" type="line"/>
      <point x="99.0" y="624.0" type="line"/>
      <point x="99.0" y="620.0" type="line"/>
    </contour>
  </outline>
</glyph>
<glyph name="one.ss10.numr" format="2">
  <advance width="157.0"/>
  <outline>
    <contour>
      <point x="54.0" y="328.0" type="line"/>
      <point x="107.0" y="328.0" type="line"/>
      <point x="107.0" y="699.0" type="line"/>
      <point x="4.0" y="700.0" type="line"/>
      <point x="4.0" y="650.0" type="line"/>
      <point x="54.0" y="649.0" type="line"/>
      <point x="54.0" y="648.0" type="line"/>
    </contour>
  </outline>
</glyph>
<glyph name="ordfeminine.ss01" format="2">
  <advance width="477.0"/>
  <outline>
    <contour>
      <point x="73.0" y="201.0" type="line"/>
      <point x="387.0" y="201.0" type="line"/>
      <point x="387.0" y="256.0" type="line"/>
      <point x="73.0" y="256.0" type="line"/>
    </contour>
    <contour>
      <point x="189.0" y="310.0" type="curve" smooth="yes"/>
      <point x="268.0" y="310.0"/>
      <point x="302.0" y="350.0"/>
      <point x="323.0" y="378.0" type="curve"/>
      <point x="328.0" y="378.0" type="line"/>
      <point x="328.0" y="320.0" type="line"/>
      <point x="387.0" y="320.0" type="line"/>
      <point x="387.0" y="571.0" type="line" smooth="yes"/>
      <point x="387.0" y="664.0"/>
      <point x="302.0" y="713.0"/>
      <point x="226.0" y="713.0" type="curve" smooth="yes"/>
      <point x="153.0" y="713.0"/>
      <point x="103.0" y="691.0"/>
      <point x="58.0" y="643.0" type="curve"/>
      <point x="100.0" y="599.0" type="line"/>
      <point x="133.0" y="637.0"/>
      <point x="174.0" y="655.0"/>
      <point x="223.0" y="655.0" type="curve" smooth="yes"/>
      <point x="272.0" y="655.0"/>
      <point x="324.0" y="629.0"/>
      <point x="324.0" y="573.0" type="curve" smooth="yes"/>
      <point x="324.0" y="540.0" type="line"/>
      <point x="335.0" y="548.0" type="line"/>
      <point x="243.0" y="543.0" type="line" smooth="yes"/>
      <point x="127.0" y="537.0"/>
      <point x="55.0" y="498.0"/>
      <point x="55.0" y="421.0" type="curve" smooth="yes"/>
      <point x="55.0" y="358.0"/>
      <point x="115.0" y="310.0"/>
    </contour>
    <contour>
      <point x="200.0" y="363.0" type="curve" smooth="yes"/>
      <point x="148.0" y="363.0"/>
      <point x="118.0" y="384.0"/>
      <point x="118.0" y="424.0" type="curve" smooth="yes"/>
      <point x="118.0" y="466.0"/>
      <point x="163.0" y="485.0"/>
      <point x="248.0" y="491.0" type="curve" smooth="yes"/>
      <point x="333.0" y="497.0" type="line"/>
      <point x="324.0" y="508.0" type="line"/>
      <point x="324.0" y="479.0" type="line" smooth="yes"/>
      <point x="324.0" y="417.0"/>
      <point x="276.0" y="363.0"/>
    </contour>
  </outline>
</glyph>
<glyph name="rupee.tf" format="2">
  <advance width="596.0"/>
  <outline>
    <contour>
      <point x="431.0" y="17.0" type="curve" smooth="yes"/>
      <point x="507.0" y="17.0"/>
      <point x="567.0" y="72.0"/>
      <point x="567.0" y="148.0" type="curve" smooth="yes"/>
      <point x="567.0" y="287.0"/>
      <point x="414.0" y="273.0"/>
      <point x="414.0" y="357.0" type="curve" smooth="yes"/>
      <point x="414.0" y="385.0"/>
      <point x="433.0" y="405.0"/>
      <point x="460.0" y="405.0" type="curve" smooth="yes"/>
      <point x="482.0" y="405.0"/>
      <point x="498.0" y="387.0"/>
      <point x="507.0" y="358.0" type="curve"/>
      <point x="573.0" y="394.0" type="line"/>
      <point x="543.0" y="460.0"/>
      <point x="503.0" y="473.0"/>
      <point x="455.0" y="473.0" type="curve" smooth="yes"/>
      <point x="388.0" y="473.0"/>
      <point x="340.0" y="427.0"/>
      <point x="340.0" y="350.0" type="curve" smooth="yes"/>
      <point x="340.0" y="225.0"/>
      <point x="493.0" y="238.0"/>
      <point x="493.0" y="141.0" type="curve" smooth="yes"/>
      <point x="493.0" y="105.0"/>
      <point x="465.0" y="86.0"/>
      <point x="431.0" y="86.0" type="curve" smooth="yes"/>
      <point x="396.0" y="86.0"/>
      <point x="367.0" y="110.0"/>
      <point x="330.0" y="152.0" type="curve" smooth="yes"/>
      <point x="175.0" y="330.0" type="line"/>
      <point x="141.0" y="298.0" type="line"/>
      <point x="234.0" y="299.0"/>
      <point x="322.0" y="347.0"/>
      <point x="322.0" y="483.0" type="curve" smooth="yes"/>
      <point x="322.0" y="621.0"/>
      <point x="234.0" y="670.0"/>
      <point x="137.0" y="670.0" type="curve" smooth="yes"/>
      <point x="23.0" y="670.0" type="line"/>
      <point x="23.0" y="30.0" type="line"/>
      <point x="98.0" y="30.0" type="line"/>
      <point x="98.0" y="297.0" type="line"/>
      <point x="115.0" y="297.0" type="line"/>
      <point x="128.0" y="270.0"/>
      <point x="142.0" y="248.0"/>
      <point x="162.0" y="227.0" type="curve" smooth="yes"/>
      <point x="262.0" y="119.0" type="line" smooth="yes"/>
      <point x="331.0" y="44.0"/>
      <point x="368.0" y="17.0"/>
    </contour>
    <contour>
      <point x="98.0" y="369.0" type="line"/>
      <point x="98.0" y="598.0" type="line"/>
      <point x="137.0" y="598.0" type="line" smooth="yes"/>
      <point x="201.0" y="598.0"/>
      <point x="243.0" y="578.0"/>
      <point x="243.0" y="483.0" type="curve" smooth="yes"/>
      <point x="243.0" y="391.0"/>
      <point x="201.0" y="369.0"/>
      <point x="137.0" y="369.0" type="curve" smooth="yes"/>
    </contour>
  </outline>
</glyph>
<glyph name="tildecomb.case" format="2">
  <anchor x="0.0" y="700.0" name="_top"/>
  <anchor x="0.0" y="804.0" name="top"/>
  <outline>
    <contour>
      <point x="64.0" y="736.0" type="curve" smooth="yes"/>
      <point x="116.0" y="736.0"/>
      <point x="152.0" y="773.0"/>
      <point x="152.0" y="825.0" type="curve"/>
      <point x="102.0" y="825.0" type="line"/>
      <point x="102.0" y="808.0"/>
      <point x="90.0" y="793.0"/>
      <point x="67.0" y="793.0" type="curve" smooth="yes"/>
      <point x="21.0" y="793.0"/>
      <point x="10.0" y="833.0"/>
      <point x="-68.0" y="833.0" type="curve" smooth="yes"/>
      <point x="-119.0" y="833.0"/>
      <point x="-155.0" y="796.0"/>
      <point x="-155.0" y="744.0" type="curve"/>
      <point x="-107.0" y="744.0" type="line"/>
      <point x="-107.0" y="761.0"/>
      <point x="-94.0" y="776.0"/>
      <point x="-69.0" y="776.0" type="curve" smooth="yes"/>
      <point x="-24.0" y="776.0"/>
      <point x="-14.0" y="736.0"/>
    </contour>
  </outline>
</glyph>
